<?xml version="1.0" encoding="UTF-8" standalone="no"?><!DOCTYPE svg PUBLIC "-//W3C//DTD SVG 1.1//EN" "http://www.w3.org/Graphics/SVG/1.1/DTD/svg11.dtd"><svg width="100%" height="100%" viewBox="0 0 432 684" version="1.1" xmlns="http://www.w3.org/2000/svg" xmlns:xlink="http://www.w3.org/1999/xlink" xml:space="preserve" xmlns:serif="http://www.serif.com/" style="fill-rule:evenodd;clip-rule:evenodd;stroke-linejoin:round;stroke-miterlimit:2;"><path d="M319.289,499.964c-15.35,8.837 -34.85,5.738 -45.82,-8.279l28.68,-2.299c7.61,-4.889 0,-8.504 -0.44,-10.953c-0.67,-3.806 4.85,-2.282 7.69,-2.831c15.08,-2.924 18.65,-28.185 4.63,-35.873c-4.97,-2.723 -8.63,-1.341 -13.8,-1.816l-17.83,-23.978c16.72,-12.152 39.51,-7.663 51.64,8.662c16.7,22.479 9.86,63.207 -14.75,77.367Zm-23.6,-42.819c-0.33,-3.215 0.56,-6.155 2.84,-8.479l4.91,7.813l-7.75,0.666Zm9.46,-11.86c10.53,0.191 13.89,13.326 6.68,20.239c-5.89,5.638 -15.72,0.549 -13.93,-1.366c16.81,-1.108 17.36,-7.171 7.25,-18.873Zm-35.09,40.944c-2.56,-0.233 -6.61,-12.043 -7.14,-14.85l25.96,-5.655l7.88,8.862l-2.98,9.311l-23.72,2.332Zm-8.42,-25.22l1.18,-1.157l25.87,-2.033c0.17,1.092 -1.38,1.117 -2.16,1.283c-8.3,1.882 -16.86,2.857 -25.04,5.272l0.15,-3.365Zm-4.75,-52.871c-0.3,-4.823 -3.85,-12.319 2.54,-14.301l9.09,12.926l-11.78,12.602c-0.15,-3.706 0.39,-7.529 0.15,-11.227Zm-5.79,-14.651c-1.85,7.638 0.74,19.473 0.21,27.769c-0.2,3.231 -1.16,7.154 -1.73,10.403l-16.27,-0.25c-0.55,-19.923 -8.82,-37.164 0.71,-56.295c3.67,-7.355 4.66,-8.387 12.38,-4.873c6.53,2.982 10.35,7.755 14.74,13.16c-0.01,0.8 -9.15,6.372 -10.04,10.086Zm-0.87,46.7l-17.07,0.508l0.05,-3.09l17.06,-0.516l-0.04,3.098Zm-0.21,15.067c-0.32,6.597 -3.28,10.728 -10.27,8.446c-4.98,-1.625 -4.65,-12.335 -5.12,-16.775l15.48,0.234c-1.7,2.715 0.06,5.122 -0.09,8.095Zm-17.35,19.481c-0.48,0.3 -1.11,-0.466 -1.32,-0.807c-0.05,-0.084 -0.1,-0.167 -0.15,-0.242c-0.02,-0.025 -0.04,-0.058 -0.05,-0.083c-0.01,-0.017 -0.01,-0.009 -0.02,-0.025c-0.02,-0.017 -0.02,-0.034 -0.04,-0.05c-0.05,-0.059 -0.1,-0.117 -0.15,-0.175l-0.15,-0.175c-0.11,-0.1 -0.21,-0.2 -0.32,-0.3c-0.1,-0.092 -0.21,-0.175 -0.31,-0.258c-0.01,-0.008 -0.01,-0.008 -0.02,-0.017c-0.01,-0.008 -0.02,-0.008 -0.03,-0.016c-0.05,-0.042 -0.09,-0.075 -0.15,-0.109c-0.25,-0.166 -0.5,-0.325 -0.77,-0.474c-0.13,-0.075 -0.27,-0.15 -0.4,-0.217c-0.07,-0.033 -0.14,-0.067 -0.21,-0.1c-0.02,-0.008 -0.05,-0.025 -0.07,-0.033c-0.27,-0.125 -0.54,-0.242 -0.82,-0.358c-0.55,-0.217 -1.11,-0.417 -1.67,-0.617c-0.62,-0.216 -1.04,-0.891 -1.23,-1.482c-0.11,-0.383 -0.06,-1.125 0.54,-0.916c1.29,0.458 2.6,0.941 3.79,1.632c1.38,0.8 2.58,1.916 3.39,3.282c0.2,0.324 0.64,1.232 0.16,1.54Zm-3.4,2.857c-0.48,0.3 -1.12,-0.466 -1.32,-0.808c-0.05,-0.075 -0.1,-0.15 -0.15,-0.233c-0.08,-0.108 -0.18,-0.216 -0.27,-0.325c-0.06,-0.058 -0.13,-0.116 -0.2,-0.183c-0.11,-0.092 -0.21,-0.183 -0.33,-0.275c-0.01,-0.008 -0.03,-0.016 -0.05,-0.033c-0.06,-0.05 -0.13,-0.092 -0.19,-0.133c-0.14,-0.092 -0.27,-0.167 -0.4,-0.25c-0.14,-0.084 -0.28,-0.159 -0.43,-0.225c-0.06,-0.042 -0.14,-0.075 -0.2,-0.108l-0.02,-0.009c-0.01,-0.008 -0.03,-0.008 -0.06,-0.025c-1.15,-0.491 -2.35,-0.824 -3.58,-1.041c-0.28,-0.05 -0.53,-0.333 -0.71,-0.533c-0.24,-0.266 -0.41,-0.608 -0.52,-0.941c-0.14,-0.466 -0.05,-1.033 0.54,-0.925c3,0.533 6.09,1.783 7.73,4.506c0.2,0.325 0.65,1.241 0.16,1.541Zm-3.14,3.132c-0.19,0.125 -0.45,0.017 -0.62,-0.083c-1.2,-0.7 -2.35,-1.5 -3.59,-2.141c-1.14,-0.591 -2.5,-0.974 -3.86,-0.983c-0.61,-0.008 -1.08,-0.708 -1.31,-1.191c-0.14,-0.291 -0.41,-1.274 0.2,-1.274c1.61,0.017 3.1,0.45 4.54,1.158c1.32,0.658 2.53,1.507 3.79,2.248c0.55,0.317 1,1.05 1.05,1.666c0.02,0.192 0,0.483 -0.2,0.6Zm-10.95,-28.651l12.49,-6.805l2.08,16.291l-6.51,2.132c-1.45,-1.316 -8.7,-10.727 -8.06,-11.618Zm-11.21,-27.302c-0.91,0.732 9.06,13.85 9.52,15.625c0.57,2.182 -1.09,4.114 -1.72,6.179l-14.77,-21.904c1.51,-0.209 3.5,0.399 4.88,0.083c0.87,-0.2 0.93,-1.866 1.65,-2.374c2.48,-1.774 17.39,-1.316 21.42,-1.94l-1.44,-14.643l-36.21,-6.071c-1.31,1.166 10.31,14.942 10.38,16.024c0.04,0.542 -2.9,5.772 -3.35,5.756l-14.02,-21.106c2.76,0.833 5.68,-2.948 6.02,-3.032c1.33,-0.333 6.62,-0.041 8.4,0.109c9.77,0.799 20.48,4.273 30.4,5.214l2.04,23.97c-1.46,0.133 -0.41,-2.015 -1.44,-2.79c-1.75,-1.333 -18.26,1.083 -21.76,0.9Zm9.53,43.518c-5.11,2.399 -12.58,5.664 -17.78,1.824c-0.5,-0.375 -1.01,-1 -1.04,-1.658c-0.03,-0.508 0.35,-0.874 0.82,-0.524c2.38,1.765 5.49,1.616 8.25,1.024c2.89,-0.608 5.62,-1.766 8.27,-3.015c0.91,-0.425 2.3,1.974 1.48,2.349Zm-35.86,-71.054c-1.72,-3.706 -12.9,-16.108 -13.05,-19.015c-0.041,-0.708 0.64,-1.89 0.679,-2.765l19.601,3.548c-2.85,-2.482 -4.84,-5.93 -5.98,-9.536l-8.08,-1.832l-0.74,-6.914c2.86,0.234 6.02,-0.233 8.83,0.192c0.9,0.142 1.7,0.391 2.45,0.683c0.13,2.165 -2.46,7.871 2.18,13.626c3.62,4.498 5.78,4.789 11.56,5.239c5.59,0.433 10.8,-4.706 11.85,-10.003c0.3,-1.516 0.4,-6.13 -2.42,-4.914c-1.49,0.65 -1.72,3.281 -2.3,4.581c-1.69,3.881 -5.6,4.764 -9.44,3.931c-0.99,-0.208 -3.61,-1.974 -3.95,-3.581c-0.93,-4.373 0.08,-9.179 3.05,-12.56c1.73,-1.974 3.84,-3.532 5.89,-5.139c2.15,-1.683 4.12,-3.515 6.47,-4.939c3.35,-2.041 6.83,-3.898 10.27,-5.814c0,1.799 0.3,3.457 -0.79,5.081c-1.61,2.374 -10.34,7.671 -13.12,10.477c-1.85,1.866 -3.53,3.923 -4.86,6.197c-0.64,1.091 -3.22,5.164 -2.12,6.372c0.39,0.433 1.01,0.558 1.6,0.616c2.45,0.25 3.6,-0.783 4.92,-2.723c3.27,-4.814 7.5,-8.396 11.95,-12.036c0.9,-0.733 1.79,-1.466 2.66,-2.232c0.4,-0.35 2,-2.299 2.44,-2.299c2.92,-0.524 12.72,12.144 13.87,15.376l-5.05,12.318l-19.15,-3.557c-2.1,1.841 -4.24,3.665 -6.7,5.006c-0.56,0.308 -1.15,0.592 -1.74,0.833l27.05,4.897l-0.88,6.189l-43.56,-6.805l-1.17,1.208c-0.16,1.507 -0.83,10.386 -2.22,10.294Zm-29.611,-24.687c-5.879,-10.036 1.801,-17.174 9.421,-22.854c5.819,4.814 -4.61,9.403 -3.59,13.326c1.139,4.298 7.87,0.217 7.73,-3.19l2.33,0.367c4.339,8.404 -10.25,22.005 -15.891,12.351Zm-26.129,98.631c-9.07,8.112 -16.2,-1.699 -14.35,-11.66c1.49,-7.996 10.25,-12.502 16.17,-5.756c-13.38,-1.541 -15.52,16.641 -1.82,17.416Zm-27.92,40.079c-26.74,-11.769 -31.73,-45.593 -20.82,-71.371c0.86,-2.065 1.84,-4.064 2.91,-6.013c3.72,-6.746 8.64,-12.693 14.62,-17.191c0.85,-0.641 1.72,-1.249 2.61,-1.824c6.36,-4.123 13.8,-6.663 22.17,-6.954c1.89,-0.067 13.47,0.574 13.529,2.165l-13.259,31.941c-6.11,2.041 -10.74,4.106 -13.83,10.137c-11.9,23.22 17.26,42.535 28.94,18.806c3,-6.08 1.03,-9.403 2.49,-14.734c0.63,-2.315 3.419,-6.13 4.56,-8.678c3.5,-7.838 7.16,-15.634 10.3,-23.613c1.059,-0.941 3.17,2.94 3.67,3.69c25.81,39.504 -12.29,103.703 -57.89,83.639Zm-4.8,13.409c0,0 0,0.003 0.01,0c0,0 0,0.001 0.01,0.002c-0.01,-0.001 -0.02,-0.001 -0.02,-0.002Zm52.06,-108.35l-13.56,30.542c-0.67,0.474 -4.72,-1.5 -3.53,-3.174c4.19,-7.146 6.48,-15.558 10,-22.829c1.599,-3.298 4.609,-10.336 7.09,-4.539Zm4.289,-21.739c0.401,-0.957 0.831,-1.882 1.27,-2.782c1.191,-2.423 2.331,-5.78 5.121,-5.622c2.9,0.167 -3.24,9.912 -4.07,12.411c-0.23,0.716 -0.49,1.449 -1.02,1.99c-1.281,1.333 -2.98,0.625 -2.72,-1.183c0.24,-1.624 0.78,-3.248 1.419,-4.814Zm-17.469,-29.792c-0.14,-2.057 0.04,-4.181 0.56,-6.247c1.04,-4.189 3.419,-8.12 7.159,-10.727c6.371,-4.44 11.941,-2.166 19.041,-3.59c-6.7,4.806 -14.62,11.361 -15.76,19.406c-0.271,1.958 -0.15,4.007 0.5,6.13c0.34,1.133 0.84,2.291 1.489,3.465c1.021,1.857 3.101,2.807 3.181,4.922c-10.201,1.691 -15.64,-5.313 -16.17,-13.359Zm-20.2,10.103c-1.9,-0.966 -6.12,-9.495 -5.24,-12.094l2.68,0.042l16.69,0.25c-0.13,1.607 -0.03,3.19 0.27,4.722c0.65,3.357 2.21,6.489 4.17,9.287c-0.94,0.658 -16.9,-1.358 -18.57,-2.207Zm-20.38,-8.371c-1.49,-2.648 -2.2,-5.73 -1.76,-8.937c0.25,-1.848 1.4,-4.281 2.95,-6.579c4.91,-7.338 8.24,-7.255 16.37,-5.947c-2.14,-0.342 -6.09,7.379 -6.7,8.778c-2.99,6.78 -3.01,14.559 1.77,20.939c-5.17,-0.366 -10.05,-3.656 -12.63,-8.254Zm24.11,-20.039c1.21,-0.483 16.929,-1.624 17.64,-1.091c-2.4,3.648 -5.78,6.846 -6.46,11.427l-11.62,0.808l-5.84,0.408l-1.84,0.133c0.12,-1.032 0.55,-2.315 1.21,-3.656l0,-0.008c1.03,-2.116 2.56,-4.373 4.14,-5.989c0.93,-0.966 1.89,-1.699 2.77,-2.032Zm73.15,-12.593c1.64,0.183 3.17,1.424 4.69,1.457c4.93,0.092 19.05,-8.612 24.29,-11.06c2.09,-0.983 4.87,-2.091 7.91,-3.349c4.32,-1.782 15.09,-7.137 19.18,-9.494c2.66,-1.533 6.41,-5.498 8.77,-8.421c4.15,2.457 8.44,4.664 12.83,6.596c-0.32,0.25 -0.64,0.5 -0.97,0.742c-4.59,3.456 -9.39,6.455 -14.54,9.303c-9.79,5.406 -20.81,10.236 -33.87,16.508c-4.37,2.091 -10.28,6.288 -14.51,7.862c-6.95,2.574 -15.12,1.1 -13.21,11.578c-0.45,0.125 -0.89,0.391 -1.28,0.841c-1.95,-1.649 -1.81,-6.197 -1.22,-8.171c0.32,-1.099 1.59,-1.574 1.82,-2.065c1.11,-2.291 -5.24,-1.35 -6.21,-0.1c-2.51,3.198 0.61,8.986 0.25,9.303c-4.69,0.725 -5.98,-5.047 -4.93,-8.612c0.35,-1.216 3.52,-4.773 0.83,-5.347c-0.39,-0.083 -3.64,0.791 -4.19,1.099c-5.23,2.924 0.27,12.269 -0.23,12.735c-3.18,0.533 -5,-3.948 -5.57,-6.421c-2.85,-12.252 10.31,-16.109 20.16,-14.984Zm7.07,-14.834c-3.91,-0.141 -7.8,-0.55 -11.65,-1.216c-3.48,-0.599 -6.69,-1.782 -10.161,-2.274c-2,-0.283 -4,-0.566 -5.939,-1.107c-2.18,-0.608 -4.261,-1.533 -6.33,-2.449c-3,-1.341 -6,-2.682 -9.01,-4.023c-1.06,-0.475 -2.14,-0.958 -3.13,-1.599c-0.291,-0.192 -0.581,-0.408 -0.85,-0.633c-0.55,-0.458 -1.07,-1.041 -1.13,-1.749c-0.081,-1.091 2.03,-1.841 2.85,-2.54c1.15,-0.992 2.329,-1.933 3.52,-2.874c2.11,-1.666 4.23,-3.323 6.41,-4.881c1.67,-1.191 7.75,-5.263 9.28,-5.305c2.99,-0.083 10.8,5.322 14.1,6.78c11.1,4.88 28.65,7.296 40.24,5.247c6.27,-1.108 12.32,-2.407 18.25,-4.731c0.96,-0.375 4.55,2.357 7.22,4.439c-2.53,2.116 -5.46,4.581 -5.65,4.639c-0.26,0.075 -0.59,0.217 -0.93,0.375c-0.46,-1.915 -2.17,-3.348 -4.24,-3.348c-2.4,0 -4.36,1.957 -4.36,4.364c0,1.316 0.6,2.491 1.52,3.29c-1.54,0.983 -3.01,1.883 -4.18,2.432c-1.84,0.858 -3.69,1.633 -5.55,2.332c-2.29,0.867 -4.6,1.599 -6.92,2.224c-7.68,1.916 -15.44,2.899 -23.36,2.607Zm-55.42,-20.372c-5.861,0.916 -9.74,-1.941 -11.52,-6.097c0.03,-0.017 0.04,-0.025 0.07,-0.042c-0.29,-3.806 -0.32,-7.662 -0.11,-11.519c0.42,-1.107 0.97,-2.173 1.65,-3.156c5.569,-8.104 16.319,-12.552 24.98,-16.849c18.12,-8.987 41.62,-16.292 55.48,-31.409c7.87,-8.595 12.41,-20.255 21.91,-27.202c7.74,12.194 4.12,27.552 -2.7,39.296c-4.44,7.629 -11.66,15.017 -19.49,19.714c-13.42,8.063 -30.42,12.644 -44.56,20.664c-7.86,4.464 -17.42,15.309 -25.71,16.6Zm-71.41,-32.291c-3.09,-9.612 -3.44,-27.752 -0.73,-37.422c0.32,-1.183 0.36,-2.007 1.58,-2.757c3.53,3.565 8.59,5.481 12.56,8.204c2.49,1.716 1.5,5.172 6.57,3.79c-4.13,-8.546 6,-10.053 6.55,-1.558c0.58,8.954 -12.06,7.946 -13.16,10.003c-1.7,22.505 18.91,32.874 38.77,31.092c0.5,1.257 0.85,2.299 0.91,2.907c0.29,2.548 -1.24,5.672 -1.25,8.137c0,1.224 0.14,2.44 0.41,3.631c-20.78,4.331 -45.3,-4.547 -52.21,-26.027Zm-9.14,-56.853c-0.05,-0.175 -0.09,-0.35 -0.11,-0.533c-0.2,-1.941 1.46,-4.748 2.29,-6.33c1.74,-3.357 4.13,-6.33 6.49,-9.27c1.9,-2.349 6.97,-0.6 9.32,0.291c3.84,1.458 7.3,3.765 10.69,6.039c5.74,3.864 11.46,7.696 17.46,11.16c0.3,0.179 -2.82,9.076 -3.03,9.749c0,1.948 -1.29,4.484 -1.74,6.393c-0.18,0.763 -0.69,4.833 -1.46,5.04c-1.19,0.322 -1.08,-1.691 -1.42,-2.489c-1,-2.317 -3.27,-4.078 -5.59,-4.687c-1.64,-0.431 -3.37,-0.644 -5.02,-0.262c-1.74,0.402 -3,2.163 -4.8,2.068c-1.78,-0.094 -3.57,-2.167 -5,-3.06c-3.84,-2.366 -7.55,-4.972 -11.12,-7.729c-1.88,-1.458 -6.15,-3.957 -6.96,-6.38Zm51.53,4.997c0.1,-0.225 0.23,-0.466 0.39,-0.658c0.18,-0.225 0.4,-0.383 0.69,-0.4c0.12,-0.008 0.25,0.025 0.37,0.075c0.05,0.017 0.11,0.042 0.16,0.067c0.07,0.033 0.13,0.067 0.2,0.1c0.27,0.15 0.54,0.3 0.82,0.45c1.35,0.749 2.72,1.49 4.08,2.24c-0.22,-0.125 -0.61,0.367 -1.07,1.158c-0.36,0.633 -0.77,1.457 -1.17,2.324l0,0.016c-1.6,2.89 -2.88,6.705 -4.18,10.111c-0.06,0.167 -0.14,0.325 -0.21,0.483c-0.09,0.184 -0.27,0.667 -0.49,1.283c-0.03,0.075 -0.05,0.158 -0.09,0.242c-0.15,0.341 -0.29,0.666 -0.43,0.991c0,0.083 0,0.166 0.01,0.25c-0.63,1.857 -1.28,3.931 -1.16,3.923c-0.95,0.083 -1.92,0.025 -2.85,-0.175c-7.34,-1.549 3.48,-19.282 4.93,-22.48Zm0.25,32.325c0.99,6.804 2.61,13.509 4.8,19.922c0.37,1.075 1.08,2.707 1.88,4.498c-13.56,-0.092 -28.55,-5.847 -29.35,-21.014c0.16,2.99 8.9,-3.84 9.37,-4.331c0.84,-0.866 1.67,-2.257 3.01,-2.241c2.86,0.034 4.62,3.49 7.63,3.607c0.85,0.033 1.8,-0.1 2.66,-0.441Zm73.4,-6.98l-31.62,14.559c-8.23,-17.083 -6.71,-44.135 8.99,-56.553c7.649,-6.039 17.93,-5.722 25.47,-0.009c-5.51,13.26 -5.98,28.085 -2.84,42.003Zm-65.12,-31.883c3.83,-15.6 11.74,-29.734 24.54,-38.488c13.13,-9.012 28.72,-12.61 44.11,-8.329c0.55,0.15 1.09,0.309 1.63,0.475c1.73,0.55 17.13,8.687 16.62,9.179c-6.24,5.988 -11.97,12.726 -16,20.43c-15.2,-7.413 -28.39,-5.497 -38.781,8.029c-12.74,16.566 -11.74,40.095 -4.819,58.877c-7.441,3.756 -14.97,6.938 -20.63,13.235c-0.62,-0.842 -1.27,-1.658 -1.94,-2.441c-0.83,-2.14 -1.92,-4.189 -2.66,-6.338c-1.95,-5.747 -3.35,-12.035 -4.13,-18.59c-0.2,-1.649 -0.35,-3.323 -0.46,-4.997c0.31,-0.109 0.62,-0.167 0.96,-0.167c1.32,0 2.79,0.883 3.86,0.1c0.45,-0.333 0.68,-0.874 0.88,-1.391c0.74,-1.849 1.47,-3.698 2.2,-5.539c0.48,-1.182 0.95,-2.465 0.66,-3.706c-0.48,-2.016 -2.38,-2.532 -1.94,-5.047c0.25,-1.391 0.92,-2.665 1.32,-4.023c0.4,-1.358 0.47,-2.949 -0.4,-4.065c-0.91,-1.149 -1.16,-2.465 -2.46,-3.273c-1.02,-0.625 -2.02,-1.291 -3.02,-1.957c0.14,-0.666 0.3,-1.316 0.46,-1.974Zm110.35,-42.202c5.26,-0.558 13.43,3.739 18.74,5.188c11.09,3.032 22.7,5.156 33.72,6.522c5.52,0.691 11.04,1.216 16.59,1.449c11.59,10.236 17.6,25.437 19.79,40.445c2.15,14.676 0.82,29.726 -3.61,43.868c-2.55,8.179 -5.81,17.907 -11.09,25.595c-0.3,0.433 -0.61,0.866 -0.93,1.291c-2.18,2.94 -4.69,5.522 -7.6,7.546c-0.04,0.025 -0.06,0.05 -0.1,0.075c-0.64,-1.641 -0.84,-3.523 -1.58,-5.214c-0.28,-0.658 -0.6,-1.299 -0.96,-1.924c-3.05,-5.397 -8.46,-9.512 -12.99,-13.626c-0.82,-0.991 -1.68,-1.957 -2.6,-2.882l8.53,-11.344c15.75,-32.815 -0.83,-82.439 -44.1,-71.97c-22.3,5.398 -25.16,24.845 -40.09,38.313c-3.08,2.782 -6.73,4.848 -10.07,7.263c-1.49,-1.449 -2.2,-3.823 -2.44,-5.88c-1.76,-15.775 3.99,-34.848 14.22,-46.85c5.77,-6.763 17.48,-16.908 26.57,-17.865Zm-6.82,-15.934c4.62,-0.258 9.62,-0.724 12.19,-2.956c1.66,-1.441 2.6,-5.048 5.47,-4.873c10.05,4.031 20.19,7.904 30.8,10.211c6.95,1.5 14.13,2.624 20.96,2.283c1.11,-0.05 4.96,-0.225 5.46,0.1c0.19,0.116 1.12,3.223 1.49,4.064c3.76,8.662 5.8,6.305 12.67,10.569c0.87,0.542 1.46,0.667 1.2,1.916c-7.15,-0.725 -14.55,0.391 -21.87,-0.292c-7.59,-0.724 -15.16,-1.699 -22.66,-3.006c-14.77,-2.574 -29.29,-6.48 -43.26,-11.944c-0.71,-0.275 -1.97,-0.783 -3.33,-1.391c-2.33,-1.049 -1.68,-4.539 0.88,-4.681Zm51.42,-40.753c26.18,-7.529 23.58,23.571 13.14,37.472c-15.21,-1.574 -30.49,-4.34 -44.4,-10.794c5.86,-11.394 18.75,-23.071 31.26,-26.678Zm54.08,7.954c-4.1,5.164 -10.72,8.796 -15.28,13.501c-4.79,4.939 -3.48,7.846 3.49,5.931c-4.75,6.396 -12.72,10.902 -20.81,10.402c4.11,-15.183 17.13,-27.002 32.6,-29.834Zm-6.9,245.885c-2.59,-0.458 -7.19,1.783 -9.33,0.275c-0.98,-0.683 -4.08,-9.053 -6.65,-10.186c6.24,-10.003 15.18,2.815 15.98,9.911Zm8.33,12.527c1.17,-9.528 -1.58,-18.907 -7.35,-26.444c18.36,-1.383 24.08,18.656 7.35,26.444Zm-8.17,2.99c-1.49,1.416 -11.27,2.54 -13.59,1.724c2.84,-3.023 5.1,-6.838 4.81,-11.169l10.85,0.167l-2.07,9.278Zm-20.15,0.466c-3.87,4.34 -6.23,4.648 -12.12,3.349c-1.68,-0.384 -9.44,-3.374 -6.87,-5.606l18.52,-18.665c6.58,7.021 6.89,13.71 0.47,20.922Zm-58.54,-165.686c-0.3,-3.007 -3.82,-13.06 -3.32,-14.559c0.4,-1.232 7.27,-2.19 8.82,-2.315c39.03,-3.298 46.62,50.173 23.39,72.478l-35.58,-25.145c4.78,-9.62 7.8,-19.573 6.69,-30.459Zm-7.54,77.967c-14.36,3.839 -31.82,3.956 -45.97,-0.85c-1.18,-0.4 -13.31,-5.447 -12.31,-6.763l32.86,-13.743l25.42,21.356Zm-18.72,-23.946c-2.27,-2.648 4.73,-5.672 6.93,-7.604c3.42,-3.015 6.22,-6.663 9.36,-9.953c0,0.117 21.94,15.408 23.91,16.774c6.28,4.34 11.66,9.745 17.59,14.501c2.66,2.14 7.76,6.363 11.09,10.769c4.04,5.347 5.48,10.953 -3.24,13.376c-3.81,1.066 -7.61,1.008 -11.29,0.208c-6.34,-1.374 -12.31,-4.963 -17.36,-8.945c-0.03,-0.016 -36.99,-29.126 -36.99,-29.126Zm46.93,70.279c-2.05,4.231 -9.06,13.168 -12.22,17.291c-1.72,2.224 -3.33,4.739 -5.82,6.197c0.02,-1.949 0.82,-3.99 1.74,-5.656c2.29,-4.106 11.45,-16.899 14.59,-20.38c0.79,-0.875 1.22,-1.899 2.66,-1.566c0.25,1.649 -0.26,2.715 -0.95,4.114Zm0.4,-18.082c0.99,-1.332 2.02,-2.34 3.09,-3.115c3.24,-2.34 6.87,-2.657 10.91,-3.764c0.4,0.016 0.79,0.041 1.18,0.058c0.07,-0.025 0.13,-0.05 0.21,-0.075c2.55,-0.916 5.49,-1.966 8.48,-3.223l0.01,-0.009c1.94,-0.683 3.86,-1.424 5.72,-2.224c4.4,-1.907 8.67,-5.138 12.53,-6.771c1.1,-0.458 2.13,-0.05 2.31,0.833c0.26,1.316 -4.38,3.74 -5.56,4.489c-11.53,7.313 -25.26,12.41 -38.88,13.801Zm14.71,99.131l1.6,-0.467l16.58,24.537l-5.17,8.204l-26.63,1.89c-0.67,-12.943 5.35,-24.67 13.62,-34.164Zm105.06,80.982c-0.35,-3.217 -8.86,-5.342 -11.71,-5.921c-1.7,-0.344 -8.11,-1.411 -9.33,-1.411l-13.05,0c7.88,-13.309 11.62,-29.117 10.6,-44.533c-0.09,-1.291 -0.2,-2.573 -0.36,-3.848c-1.82,-15.15 -8.41,-29.501 -20.47,-39.97c-17.22,-14.942 -44.5,-15.575 -62.38,-1.324l-8.59,-11.477c0.47,-2.224 5.36,-10.253 7.39,-10.053c10.68,11.768 29.79,7.887 43.7,4.755c15.12,-3.406 32.6,-12.618 25.63,-30.991c-5.91,-15.592 -21.41,-9.52 -34.28,-12.16c0.86,-3.149 2.79,-5.947 3.78,-9.071c4.37,-13.734 -0.34,-30.325 -5.83,-44.001c2.77,-3.631 5.23,-7.446 7.4,-11.561c1.16,-2.448 2.24,-4.989 3.2,-7.596c5.57,-14.975 7.76,-32.132 6.32,-47.074c-0.83,-8.471 -2.74,-16.841 -5.92,-24.737c-1.35,-3.357 -8.27,-20.606 -12.32,-20.822c5.83,0.308 21.89,-2.624 12.42,-10.353c-5.66,-4.623 -15.25,-6.422 -15.89,-14.967c5.78,-0.908 20.97,-11.461 21.52,-17.083c0.28,-2.981 -1.87,-2.84 -2.09,-5.122c4.64,-2.998 13.33,-10.119 16.27,-14.625c4.18,-6.405 -7.27,-5.872 -11.06,-5.506c-9.69,0.95 -19.44,7.13 -26.71,13.177c-2.1,-10.536 -5.53,-20.881 -17.79,-22.114c-19.82,-1.998 -40.56,19.265 -51.08,34.099c-0.99,1.399 -3.05,6.222 -3.48,6.571c-2.17,1.799 -28.57,1 -22.07,11.686c1.8,2.957 13.9,6.705 13.9,7.571c-2.21,1.332 -8.01,5.905 -10.35,4.872c-0.75,-0.325 -2.38,-2.024 -3.56,-2.724c-18.65,-11.044 -33.611,-15.066 -54.54,-6.088c-21.99,9.437 -34.86,27.802 -40.22,48.899c-0.01,0.017 -0.01,0.042 -0.02,0.058c-0.77,-0.425 -1.56,-0.816 -2.36,-1.166c-4.48,-1.94 -8.63,-4.639 -12.88,-7.013c-7,-3.906 -15.03,-9.545 -23.1,-10.86c-9.31,-1.516 -16.98,6.254 -20.17,14.283c-4.69,11.786 1.43,15.267 9.94,22.055c-5.47,8.862 -5.07,22.663 -4.3,32.866c1.4,18.682 13.09,33.99 30.66,40.387c10.68,3.889 19.66,3.898 30.33,3.056c-0.02,-0.299 0.08,-0.649 0.22,-0.791c0.26,-0.275 0.54,-0.533 0.81,-0.808c-0.21,-0.341 -0.07,-1.107 0.34,-1.166c0.03,-0.008 0.07,-0.008 0.11,-0.016c0.54,0.957 1.18,1.857 1.91,2.69c3.05,3.473 6.91,4.964 11.44,5.43c1.229,0.125 2.479,0.183 3.689,0.45c-0.24,-0.092 -0.47,-0.167 -0.71,-0.208c0.421,0.041 0.791,0.141 1.141,0.3c6.18,2.89 11.2,8.087 17.589,11.019c3.801,1.748 7.77,3.138 11.841,4.253c0.02,0.117 0.02,0.234 0,0.352c1.97,0.838 3.94,1.692 5.929,2.504l0.631,0.043c-0.381,-0.294 -0.77,-0.577 -1.19,-0.824c-1.07,-0.627 -2.18,-1.121 -3.31,-1.536c0.03,0.007 0.06,0.015 0.079,0.022c0.01,0.008 0.02,0.008 0.03,0.008c9.451,2.366 19.361,3.373 28.891,4.031l-7.58,3.582c-8.6,-2.782 -16.801,-1.441 -24.51,3.056c-6.21,3.615 -8.5,7.563 -16.311,8.129c-17.939,1.308 -35.139,1.117 -52.889,-1.216c-0.03,-0.008 -0.04,-0.025 -0.06,-0.033c-6.09,1.891 -11.49,5.314 -14.29,11.369c-2.64,5.747 -2.75,12.926 -0.08,18.607c0.61,1.291 1.37,2.498 2.27,3.606c3.56,4.331 9.53,6.971 16.48,8.637c13.63,3.257 30.96,2.807 41.059,4.231l-6.089,11.869c-10.89,-3.632 -21.59,-3.831 -31.5,-1.366c-0.44,0.117 -0.86,0.225 -1.3,0.341c-5.48,1.5 -10.71,3.815 -15.55,6.813c-3.71,2.291 -7.2,4.973 -10.42,8.004c-5.56,5.206 -10.32,11.394 -14.03,18.266c-1.07,1.974 -2.05,4.006 -2.94,6.088c-1.22,2.84 -2.27,5.764 -3.12,8.762c-5.82,20.248 -3.04,43.727 9.12,61.176c5.6,8.054 14.31,16.574 23.97,19.256c0.74,0.388 1.47,0.798 2.17,1.26c-9.12,3.409 -18.3,-1.829 -27.24,0.575c-3.69,5.538 11.84,7.547 15,7.752c13.93,0.897 25.94,-6.012 38.11,-5.977c6.84,0.019 13.92,4.117 20.61,4.865c2.83,0.316 22.08,1.43 17.949,-4.767l-22.449,-2.95c0.65,-0.565 1.65,-1.472 2.84,-2.536c-3.68,1.467 -7.74,2.111 -11.7,2.389l0,-0.003c2.97,-0.6 5.91,-1.349 8.78,-2.274c17.89,-5.722 31.289,-24.911 37.08,-42.094c6.209,-18.473 5.09,-39.187 -4.18,-56.461c-3.29,-6.13 -8.03,-10.428 -11.44,-16.283l6.78,-16.575l41.73,59.951c-0.07,0.059 -0.15,0.117 -0.21,0.184c-0.59,0.649 -1.38,1.399 -2.25,2.224c2.28,0.891 4.25,2.532 5.53,4.639c0.19,0.316 0.64,1.232 0.15,1.541c-0.19,0.116 -0.46,0.016 -0.63,-0.084c-0.27,-0.166 -0.53,-0.458 -0.69,-0.724c-0.07,-0.117 -0.15,-0.242 -0.22,-0.35c-0.03,-0.033 -0.04,-0.067 -0.07,-0.1c-0.15,-0.192 -0.3,-0.383 -0.46,-0.566c-0.04,-0.042 -0.07,-0.075 -0.1,-0.109c-0.08,-0.075 -0.15,-0.158 -0.24,-0.233c-0.19,-0.175 -0.38,-0.341 -0.59,-0.508c0,0 -0.02,-0.025 -0.06,-0.042c-0.02,-0.025 -0.06,-0.05 -0.07,-0.058c-0.11,-0.075 -0.22,-0.15 -0.34,-0.225c-0.21,-0.141 -0.45,-0.283 -0.68,-0.408c-0.12,-0.058 -0.23,-0.125 -0.37,-0.192c-0.07,-0.025 -0.13,-0.058 -0.2,-0.083c-0.24,-0.108 -0.49,-0.2 -0.75,-0.291c-0.59,-0.192 -1,-0.825 -1.19,-1.383c-2.07,1.283 -4.19,2.49 -5.55,4.623c-1.95,3.048 -2.58,8.295 -0.57,11.485c2.27,3.573 7.14,3.307 10.59,1.899c0.62,-0.258 1.2,-0.558 1.76,-0.891c2.94,-0.658 5.77,-1.624 8.56,-2.915c0.62,-0.283 1.04,-0.683 1.3,-1.125c1.38,1.916 2.3,3.532 2.2,4.44c-0.42,3.864 -12.16,3.689 -15,5.364c-3.09,1.84 -7.77,3.698 -4.33,12.126c0.59,1.416 1.39,2.416 2.34,3.14c-1.96,-2.123 8.69,-3.589 10.25,-3.773c2.16,-0.241 6.89,-0.924 8.35,-1.266c10.09,-2.365 17.83,-2.981 27.22,-7.096c2.49,2.732 1.18,2.299 -1.25,3.806c-3.88,2.416 -19.48,5.131 -24.47,5.464c-5.41,0.367 -14.79,1.866 -20.08,2.882c2.32,1.732 5.52,1.766 8.8,1.666c-0.78,1.307 -1.09,5.938 0.54,6.738c1.8,0.874 18.28,-0.042 20.01,-1.2c0,0 3.25,-9.603 3.33,-9.844c0.43,-1.258 3.64,-1.1 4.66,-1.308c2.63,-0.516 5.1,-1.424 7.64,-2.257c2.35,-0.783 3.92,0.45 6.2,0.15c5.23,9.028 10.98,17.815 19.52,23.912c0,0.001 0.01,0.001 0.01,0.001c-1.65,-0.575 -3.26,-1.226 -4.83,-1.975l0.48,0.518l-8.77,1.956c-1.43,0.915 -1.21,2.108 -0.53,3.427c2.36,4.586 24.83,2.488 30.28,2.924c6.26,0.5 13.47,3.882 19.55,3.967c11.77,0.164 24.26,-3.954 37.13,-3.046c5.56,0.392 17.61,4.615 21.41,3.976c1.07,-0.181 2,-0.437 2.39,-1.603c2.27,-5.02 -15.32,-9.17 -17.98,-9.17l-22.95,0c0.41,-0.253 0.88,-0.594 1.38,-0.995c-1.08,0.487 -2.15,0.932 -3.22,1.33c-0.29,0.11 -0.59,0.207 -0.89,0.312c6.07,-2.98 11.36,-7.21 15.87,-12.733l0,-0.003c5.89,-0.835 14.75,-0.128 20.02,0.491c4.12,0.482 19.99,6.357 19.21,-0.595Z" style="fill:#fff;fill-rule:nonzero;"/></svg>